<mxfile host="app.diagrams.net" agent="Mozilla/5.0 (Macintosh; Intel Mac OS X 10_15_7) AppleWebKit/605.1.15 (KHTML, like Gecko) Version/17.5 Safari/605.1.15" version="26.1.1">
  <diagram name="Страница — 1" id="WF7B2aWm5aLdbUOdZMc3">
    <mxGraphModel dx="1209" dy="672" grid="1" gridSize="10" guides="1" tooltips="1" connect="1" arrows="1" fold="1" page="1" pageScale="1" pageWidth="827" pageHeight="1169" math="0" shadow="0">
      <root>
        <mxCell id="0" />
        <mxCell id="1" parent="0" />
        <mxCell id="ie1GVEvHYbOVZRLDjNvs-2" value="" style="rounded=0;whiteSpace=wrap;html=1;" vertex="1" parent="1">
          <mxGeometry x="203" y="130" width="541" height="490" as="geometry" />
        </mxCell>
        <mxCell id="ie1GVEvHYbOVZRLDjNvs-3" value="Пользователь&amp;nbsp;&lt;div&gt;приложения&lt;/div&gt;" style="shape=umlActor;verticalLabelPosition=bottom;verticalAlign=top;html=1;outlineConnect=0;" vertex="1" parent="1">
          <mxGeometry x="83" y="375" width="30" height="60" as="geometry" />
        </mxCell>
        <mxCell id="ie1GVEvHYbOVZRLDjNvs-6" value="Регистрация через соц сети" style="ellipse;whiteSpace=wrap;html=1;" vertex="1" parent="1">
          <mxGeometry x="293" y="200" width="120" height="40" as="geometry" />
        </mxCell>
        <mxCell id="ie1GVEvHYbOVZRLDjNvs-7" value="Регистрация через почту" style="ellipse;whiteSpace=wrap;html=1;" vertex="1" parent="1">
          <mxGeometry x="293" y="250" width="120" height="40" as="geometry" />
        </mxCell>
        <mxCell id="ie1GVEvHYbOVZRLDjNvs-8" value="Создание категорий" style="ellipse;whiteSpace=wrap;html=1;" vertex="1" parent="1">
          <mxGeometry x="293" y="300" width="120" height="40" as="geometry" />
        </mxCell>
        <mxCell id="ie1GVEvHYbOVZRLDjNvs-9" value="Редактирование категорий" style="ellipse;whiteSpace=wrap;html=1;" vertex="1" parent="1">
          <mxGeometry x="293" y="350" width="120" height="40" as="geometry" />
        </mxCell>
        <mxCell id="ie1GVEvHYbOVZRLDjNvs-10" value="Заполнение категорий" style="ellipse;whiteSpace=wrap;html=1;" vertex="1" parent="1">
          <mxGeometry x="293" y="400" width="120" height="40" as="geometry" />
        </mxCell>
        <mxCell id="ie1GVEvHYbOVZRLDjNvs-11" value="Редактирование внесенных данных" style="ellipse;whiteSpace=wrap;html=1;" vertex="1" parent="1">
          <mxGeometry x="293" y="450" width="120" height="40" as="geometry" />
        </mxCell>
        <mxCell id="ie1GVEvHYbOVZRLDjNvs-12" value="Формирование отчета" style="ellipse;whiteSpace=wrap;html=1;" vertex="1" parent="1">
          <mxGeometry x="293" y="500" width="120" height="40" as="geometry" />
        </mxCell>
        <mxCell id="ie1GVEvHYbOVZRLDjNvs-13" value="Просмотр видео" style="ellipse;whiteSpace=wrap;html=1;" vertex="1" parent="1">
          <mxGeometry x="293" y="550" width="120" height="40" as="geometry" />
        </mxCell>
        <mxCell id="ie1GVEvHYbOVZRLDjNvs-14" value="" style="endArrow=none;html=1;rounded=0;exitX=0.5;exitY=0;exitDx=0;exitDy=0;exitPerimeter=0;entryX=0;entryY=0.5;entryDx=0;entryDy=0;" edge="1" parent="1" source="ie1GVEvHYbOVZRLDjNvs-3" target="ie1GVEvHYbOVZRLDjNvs-6">
          <mxGeometry width="50" height="50" relative="1" as="geometry">
            <mxPoint x="303" y="350" as="sourcePoint" />
            <mxPoint x="353" y="300" as="targetPoint" />
          </mxGeometry>
        </mxCell>
        <mxCell id="ie1GVEvHYbOVZRLDjNvs-15" value="" style="endArrow=none;html=1;rounded=0;entryX=0.005;entryY=0.418;entryDx=0;entryDy=0;entryPerimeter=0;exitX=0.75;exitY=0.1;exitDx=0;exitDy=0;exitPerimeter=0;" edge="1" parent="1" source="ie1GVEvHYbOVZRLDjNvs-3" target="ie1GVEvHYbOVZRLDjNvs-7">
          <mxGeometry width="50" height="50" relative="1" as="geometry">
            <mxPoint x="108" y="385" as="sourcePoint" />
            <mxPoint x="303" y="230" as="targetPoint" />
          </mxGeometry>
        </mxCell>
        <mxCell id="ie1GVEvHYbOVZRLDjNvs-16" value="" style="endArrow=none;html=1;rounded=0;entryX=0;entryY=0.5;entryDx=0;entryDy=0;exitX=0.75;exitY=0.1;exitDx=0;exitDy=0;exitPerimeter=0;" edge="1" parent="1" source="ie1GVEvHYbOVZRLDjNvs-3" target="ie1GVEvHYbOVZRLDjNvs-8">
          <mxGeometry width="50" height="50" relative="1" as="geometry">
            <mxPoint x="116" y="391" as="sourcePoint" />
            <mxPoint x="304" y="277" as="targetPoint" />
          </mxGeometry>
        </mxCell>
        <mxCell id="ie1GVEvHYbOVZRLDjNvs-17" value="" style="endArrow=none;html=1;rounded=0;entryX=0;entryY=0.45;entryDx=0;entryDy=0;exitX=0.911;exitY=0.306;exitDx=0;exitDy=0;exitPerimeter=0;entryPerimeter=0;" edge="1" parent="1" source="ie1GVEvHYbOVZRLDjNvs-3" target="ie1GVEvHYbOVZRLDjNvs-9">
          <mxGeometry width="50" height="50" relative="1" as="geometry">
            <mxPoint x="111" y="396" as="sourcePoint" />
            <mxPoint x="303" y="330" as="targetPoint" />
          </mxGeometry>
        </mxCell>
        <mxCell id="ie1GVEvHYbOVZRLDjNvs-18" value="" style="endArrow=none;html=1;rounded=0;entryX=0;entryY=0.5;entryDx=0;entryDy=0;exitX=0.933;exitY=0.361;exitDx=0;exitDy=0;exitPerimeter=0;" edge="1" parent="1" source="ie1GVEvHYbOVZRLDjNvs-3" target="ie1GVEvHYbOVZRLDjNvs-10">
          <mxGeometry width="50" height="50" relative="1" as="geometry">
            <mxPoint x="120" y="403" as="sourcePoint" />
            <mxPoint x="303" y="378" as="targetPoint" />
          </mxGeometry>
        </mxCell>
        <mxCell id="ie1GVEvHYbOVZRLDjNvs-19" value="" style="endArrow=none;html=1;rounded=0;entryX=0;entryY=0.5;entryDx=0;entryDy=0;exitX=0.8;exitY=0.383;exitDx=0;exitDy=0;exitPerimeter=0;" edge="1" parent="1" source="ie1GVEvHYbOVZRLDjNvs-3" target="ie1GVEvHYbOVZRLDjNvs-11">
          <mxGeometry width="50" height="50" relative="1" as="geometry">
            <mxPoint x="121" y="407" as="sourcePoint" />
            <mxPoint x="303" y="430" as="targetPoint" />
          </mxGeometry>
        </mxCell>
        <mxCell id="ie1GVEvHYbOVZRLDjNvs-20" value="" style="endArrow=none;html=1;rounded=0;entryX=0;entryY=0.5;entryDx=0;entryDy=0;exitX=0.422;exitY=0.494;exitDx=0;exitDy=0;exitPerimeter=0;" edge="1" parent="1" source="ie1GVEvHYbOVZRLDjNvs-3" target="ie1GVEvHYbOVZRLDjNvs-12">
          <mxGeometry width="50" height="50" relative="1" as="geometry">
            <mxPoint x="117" y="408" as="sourcePoint" />
            <mxPoint x="303" y="480" as="targetPoint" />
          </mxGeometry>
        </mxCell>
        <mxCell id="ie1GVEvHYbOVZRLDjNvs-21" value="" style="endArrow=none;html=1;rounded=0;entryX=0;entryY=0.5;entryDx=0;entryDy=0;exitX=1;exitY=1;exitDx=0;exitDy=0;exitPerimeter=0;" edge="1" parent="1" source="ie1GVEvHYbOVZRLDjNvs-3" target="ie1GVEvHYbOVZRLDjNvs-13">
          <mxGeometry width="50" height="50" relative="1" as="geometry">
            <mxPoint x="106" y="415" as="sourcePoint" />
            <mxPoint x="303" y="530" as="targetPoint" />
          </mxGeometry>
        </mxCell>
        <mxCell id="ie1GVEvHYbOVZRLDjNvs-22" value="Регистрация через ВКонтакте" style="ellipse;whiteSpace=wrap;html=1;" vertex="1" parent="1">
          <mxGeometry x="483" y="150" width="120" height="40" as="geometry" />
        </mxCell>
        <mxCell id="ie1GVEvHYbOVZRLDjNvs-23" value="Регистрация через Одноклассники" style="ellipse;whiteSpace=wrap;html=1;" vertex="1" parent="1">
          <mxGeometry x="483" y="200" width="120" height="40" as="geometry" />
        </mxCell>
        <mxCell id="ie1GVEvHYbOVZRLDjNvs-30" value="include" style="html=1;verticalAlign=bottom;endArrow=open;dashed=1;endSize=8;curved=0;rounded=0;exitX=0;exitY=0.5;exitDx=0;exitDy=0;" edge="1" parent="1" source="ie1GVEvHYbOVZRLDjNvs-22" target="ie1GVEvHYbOVZRLDjNvs-6">
          <mxGeometry relative="1" as="geometry">
            <mxPoint x="493" y="360" as="sourcePoint" />
            <mxPoint x="413" y="360" as="targetPoint" />
          </mxGeometry>
        </mxCell>
        <mxCell id="ie1GVEvHYbOVZRLDjNvs-31" value="include" style="html=1;verticalAlign=bottom;endArrow=open;dashed=1;endSize=8;curved=0;rounded=0;exitX=0;exitY=0.5;exitDx=0;exitDy=0;entryX=1;entryY=0.5;entryDx=0;entryDy=0;" edge="1" parent="1" source="ie1GVEvHYbOVZRLDjNvs-23" target="ie1GVEvHYbOVZRLDjNvs-6">
          <mxGeometry relative="1" as="geometry">
            <mxPoint x="493" y="180" as="sourcePoint" />
            <mxPoint x="402" y="215" as="targetPoint" />
          </mxGeometry>
        </mxCell>
        <mxCell id="ie1GVEvHYbOVZRLDjNvs-32" value="Подтверждение регистрации через почту" style="ellipse;whiteSpace=wrap;html=1;" vertex="1" parent="1">
          <mxGeometry x="543" y="250" width="120" height="40" as="geometry" />
        </mxCell>
        <mxCell id="ie1GVEvHYbOVZRLDjNvs-33" value="Extend" style="html=1;verticalAlign=bottom;endArrow=open;dashed=1;endSize=8;curved=0;rounded=0;exitX=1;exitY=0.5;exitDx=0;exitDy=0;entryX=0;entryY=0.5;entryDx=0;entryDy=0;" edge="1" parent="1" source="ie1GVEvHYbOVZRLDjNvs-7" target="ie1GVEvHYbOVZRLDjNvs-32">
          <mxGeometry relative="1" as="geometry">
            <mxPoint x="493" y="230" as="sourcePoint" />
            <mxPoint x="423" y="230" as="targetPoint" />
          </mxGeometry>
        </mxCell>
        <mxCell id="ie1GVEvHYbOVZRLDjNvs-34" value="Выбор представления таблицы" style="ellipse;whiteSpace=wrap;html=1;" vertex="1" parent="1">
          <mxGeometry x="473" y="420" width="120" height="40" as="geometry" />
        </mxCell>
        <mxCell id="ie1GVEvHYbOVZRLDjNvs-35" value="Выбор представления диаграммы" style="ellipse;whiteSpace=wrap;html=1;" vertex="1" parent="1">
          <mxGeometry x="593" y="450" width="120" height="40" as="geometry" />
        </mxCell>
        <mxCell id="ie1GVEvHYbOVZRLDjNvs-36" value="Выбор представления таблицы и &amp;nbsp;диаграммы" style="ellipse;whiteSpace=wrap;html=1;" vertex="1" parent="1">
          <mxGeometry x="494" y="500" width="120" height="40" as="geometry" />
        </mxCell>
        <mxCell id="ie1GVEvHYbOVZRLDjNvs-37" value="Extend" style="html=1;verticalAlign=bottom;endArrow=open;dashed=1;endSize=8;curved=0;rounded=0;exitX=1;exitY=0;exitDx=0;exitDy=0;entryX=0;entryY=0.5;entryDx=0;entryDy=0;" edge="1" parent="1" source="ie1GVEvHYbOVZRLDjNvs-12" target="ie1GVEvHYbOVZRLDjNvs-34">
          <mxGeometry relative="1" as="geometry">
            <mxPoint x="423" y="280" as="sourcePoint" />
            <mxPoint x="553" y="280" as="targetPoint" />
          </mxGeometry>
        </mxCell>
        <mxCell id="ie1GVEvHYbOVZRLDjNvs-38" value="Extend" style="html=1;verticalAlign=bottom;endArrow=open;dashed=1;endSize=8;curved=0;rounded=0;exitX=0.969;exitY=0.283;exitDx=0;exitDy=0;entryX=0.009;entryY=0.414;entryDx=0;entryDy=0;entryPerimeter=0;exitPerimeter=0;" edge="1" parent="1" source="ie1GVEvHYbOVZRLDjNvs-12" target="ie1GVEvHYbOVZRLDjNvs-35">
          <mxGeometry relative="1" as="geometry">
            <mxPoint x="405" y="516" as="sourcePoint" />
            <mxPoint x="504" y="450" as="targetPoint" />
          </mxGeometry>
        </mxCell>
        <mxCell id="ie1GVEvHYbOVZRLDjNvs-39" value="Extend" style="html=1;verticalAlign=bottom;endArrow=open;dashed=1;endSize=8;curved=0;rounded=0;exitX=1;exitY=0.5;exitDx=0;exitDy=0;entryX=0;entryY=0.5;entryDx=0;entryDy=0;" edge="1" parent="1" source="ie1GVEvHYbOVZRLDjNvs-12" target="ie1GVEvHYbOVZRLDjNvs-36">
          <mxGeometry relative="1" as="geometry">
            <mxPoint x="419" y="521" as="sourcePoint" />
            <mxPoint x="604" y="497" as="targetPoint" />
          </mxGeometry>
        </mxCell>
        <mxCell id="ie1GVEvHYbOVZRLDjNvs-40" value="Внесение пометок к видео" style="ellipse;whiteSpace=wrap;html=1;" vertex="1" parent="1">
          <mxGeometry x="584" y="550" width="120" height="40" as="geometry" />
        </mxCell>
        <mxCell id="ie1GVEvHYbOVZRLDjNvs-41" value="Extend" style="html=1;verticalAlign=bottom;endArrow=open;dashed=1;endSize=8;curved=0;rounded=0;exitX=1;exitY=0.5;exitDx=0;exitDy=0;entryX=0;entryY=0.5;entryDx=0;entryDy=0;" edge="1" parent="1" source="ie1GVEvHYbOVZRLDjNvs-13" target="ie1GVEvHYbOVZRLDjNvs-40">
          <mxGeometry relative="1" as="geometry">
            <mxPoint x="423" y="530" as="sourcePoint" />
            <mxPoint x="504" y="530" as="targetPoint" />
          </mxGeometry>
        </mxCell>
      </root>
    </mxGraphModel>
  </diagram>
</mxfile>
